<svg class="prefix__animated" id="prefix__freepik_stories-developer-activity" xmlns="http://www.w3.org/2000/svg"
  viewBox="0 0 500 500" version="1.1">
  <style>
    @keyframes floating {

      0%,
      to {
        opacity: 1;
        transform: translateY(0)
      }

      50% {
        transform: translateY(-10px)
      }
    }

    svg#prefix__freepik_stories-developer-activity:not(.prefix__animated) .prefix__animable {
      opacity: 0
    }

    .prefix__animator-hidden {
      display: none
    }
  </style>
  <g id="prefix__freepik--background-simple--inject-62"
    class="prefix__animable prefix__animator-active prefix__animator-hidden" style="transform-origin:250px 220.489px">
    <path
      d="M456.55 209.11c-48.74-83.48-180.95-53.75-207.95-94.35-13.83-20.76-29.3-44.89-51.74-57.42-21.39-12-46.19-16.21-67.81-14.63-77.21 5.65-109.94 74.73-95.11 150.59C53.74 294.49 143.44 397.86 250 398.58c55.74.42 109-19.58 150.7-47.71l.93-.63c41.7-28.39 92.14-77.4 54.92-141.13z"
      style="transform-origin:250px 220.489px" id="prefix__elwe560ha1kz" class="prefix__animable" fill="#92e3a9" />
    <path
      d="M456.55 209.11c-48.74-83.48-180.95-53.75-207.95-94.35-13.83-20.76-29.3-44.89-51.74-57.42-21.39-12-46.19-16.21-67.81-14.63-77.21 5.65-109.94 74.73-95.11 150.59C53.74 294.49 143.44 397.86 250 398.58c55.74.42 109-19.58 150.7-47.71l.93-.63c41.7-28.39 92.14-77.4 54.92-141.13z"
      style="transform-origin:250px 220.489px" class="prefix__animable" fill="#fff" opacity=".7"
      id="prefix__el7y3v36a6pn2" />
  </g>
  <g id="prefix__freepik--Lines--inject-62" class="prefix__animable"
    style="transform-origin:168.685px 221.905px;animation:1.5s Infinite linear floating;animation-delay:0s">
    <path
      d="M78.19 215.18h-5.42a21.93 21.93 0 00-21.93 21.93v120.34a21.93 21.93 0 0021.93 21.93h74.36a21.93 21.93 0 0021.93-21.93h0"
      style="transform-origin:109.95px 297.28px" id="prefix__elflzq0ooeeu6" class="prefix__animable" fill="none"
      stroke="#263238" stroke-linecap="round" stroke-linejoin="round" stroke-width="1.103" stroke-dasharray="4.412" />
    <path d="M163 101.63V77.86a13.43 13.43 0 0113.4-13.43h96.7a13.43 13.43 0 0113.43 13.43h0"
      style="transform-origin:224.765px 83.03px" id="prefix__elq2xt9e2c6wj" class="prefix__animable" fill="none"
      stroke="#263238" stroke-linecap="round" stroke-linejoin="round" stroke-width="1.103" stroke-dasharray="4.412" />
  </g>
  <g id="prefix__freepik--Shadow--inject-62" class="prefix__animable prefix__animator-hidden"
    style="transform-origin:250px 445.4px">
    <ellipse cx="250" cy="445.4" rx="191.52" ry="26.76" style="transform-origin:250px 445.4px"
      id="prefix__elr1c668laj5s" class="prefix__animable" fill="#92e3a9" />
    <ellipse cx="250" cy="445.4" rx="191.52" ry="26.76" style="transform-origin:250px 445.4px" class="prefix__animable"
      fill="#fff" opacity=".5" id="prefix__elxav0iz366v" />
  </g>
  <g id="prefix__freepik--Window--inject-62" class="prefix__animable"
    style="transform-origin:250px 223.55px;animation:1.5s Infinite linear floating;animation-delay:0s">
    <path
      d="M430.54 133.52v180.06a22.2 22.2 0 01-22.19 22.2H91.65a22.2 22.2 0 01-22.19-22.2V133.52c0-.53 0-1 .07-1.56a22.18 22.18 0 0122.12-20.64h316.7A22.18 22.18 0 01430.47 132c.05.48.07 1 .07 1.52z"
      style="transform-origin:250px 223.55px" id="prefix__elnnrljzkdn2" class="prefix__animable" fill="#fff"
      stroke="#263238" stroke-linecap="round" stroke-linejoin="round" stroke-width="1.103" />
    <path d="M80.26 140.28h340.61v166.33a20.8 20.8 0 01-20.8 20.8h-299a20.8 20.8 0 01-20.8-20.8V140.28z"
      style="transform-origin:250.565px 233.845px" id="prefix__el99s4aur9l7d" class="prefix__animable" fill="#263238" />
    <path d="M420.88 140.28v166.33a20.69 20.69 0 01-20.57 20.8H100.83a20.69 20.69 0 01-20.57-20.8V140.28z"
      style="transform-origin:250.57px 233.845px" class="prefix__animable" fill="#fff" opacity=".2"
      id="prefix__elcpstpy2dsr" />
    <path d="M430.47 132H69.53a22.18 22.18 0 0122.12-20.64h316.7A22.18 22.18 0 01430.47 132z"
      style="transform-origin:250px 121.68px" id="prefix__el2eygpsei39s" class="prefix__animable" fill="#92e3a9"
      stroke="#263238" stroke-miterlimit="10" stroke-width="1.103" />
    <path d="M113.88 121.64a3.93 3.93 0 11-3.93-3.93 3.93 3.93 0 013.93 3.93z"
      style="transform-origin:109.95px 121.64px" id="prefix__elrfusvskqs9b" class="prefix__animable" fill="#263238" />
    <path d="M130.5 121.64a3.93 3.93 0 11-3.93-3.93 3.93 3.93 0 013.93 3.93z" style="transform-origin:126.57px 121.64px"
      id="prefix__eljivup24jxy9" class="prefix__animable" fill="#263238" />
    <circle cx="143.19" cy="121.64" r="3.93" style="transform-origin:143.19px 121.64px" id="prefix__elss92mfkviwj"
      class="prefix__animable" fill="#263238" />
    <path
      d="M420.87 140.28v166.33a20.8 20.8 0 01-20.8 20.8h-299a20.8 20.8 0 01-20.4-16.76v-.06a21 21 0 01-.38-4V140.28z"
      style="transform-origin:250.58px 233.845px" id="prefix__elgd2chqdgf7" class="prefix__animable" fill="none"
      stroke="#263238" stroke-miterlimit="10" stroke-width="1.103" />
    <path
      d="M420.55 166a20.94 20.94 0 00-4.62-1.91l-1.87-8.35h-7.94l-1.85 8.35a20.25 20.25 0 00-4.64 1.91l-7.17-4.59-5.61 5.59 4.51 7.17a20.35 20.35 0 00-1.91 4.64l-8.35 1.85v7.94l8.35 1.87a20 20 0 001.91 4.66l-4.59 7.22 5.62 5.61 7.21-4.59a20.39 20.39 0 004.63 1.92l1.86 8.34H414l1.86-8.34a20.78 20.78 0 004.62-1.92l.37.24V165.8zm-10.44 29a10.26 10.26 0 1110.26-10.25A10.25 10.25 0 01410.11 195z"
      style="transform-origin:400.975px 184.685px" id="prefix__el4ddxsdyoxqm" class="prefix__animable" fill="#263238" />
    <path
      d="M277.45 174.05v-16.74l-17.6-3.91a45.51 45.51 0 00-4-9.77l2.13-3.35h-83.1l2.05 3.26a43 43 0 00-4 9.76l-17.61 3.92V174l17.61 3.93a43.65 43.65 0 004 9.84l-9.67 15.21 11.85 11.84 15.2-9.68a44.38 44.38 0 009.77 4.05l3.92 17.55h16.7l3.94-17.59a44.64 44.64 0 009.74-4.05l15.21 9.68 11.84-11.84-9.61-15.21a45.87 45.87 0 004-9.75zm-61 13.26a21.63 21.63 0 1121.63-21.63 21.62 21.62 0 01-21.63 21.63z"
      style="transform-origin:216.385px 183.51px" id="prefix__elxczif5n9uye" class="prefix__animable" fill="#263238" />
    <path
      d="M166.38 289l.71-13.29-13.77-3.88a37.21 37.21 0 00-2.82-7.9l8.32-11.68-8.92-9.89-12.46 7a36.51 36.51 0 00-7.59-3.63l-2.38-14.12-13.28-.61-3.84 13.81a35 35 0 00-7.9 2.8l-11.67-8.31-9.91 8.91 7.06 12.47a35 35 0 00-3.64 7.58l-4 .66v18l2.92.82a34.6 34.6 0 002.79 7.91l-5.74 8.05.38 6.89v.06l5.93 6.57 12.48-7.05a34.66 34.66 0 007.61 3.67L109 327.4l.11.57 13.28.7.35-1.27 3.49-12.53a35.53 35.53 0 007.94-2.8l11.65 8.3 9.9-8.9-7-12.48a34.53 34.53 0 003.59-7.57zm-35.27-20.75a17.2 17.2 0 10-1.28 24.28 17.2 17.2 0 001.28-24.24z"
      style="transform-origin:123.675px 279.835px" id="prefix__elmlvqqliul4i" class="prefix__animable" fill="#263238" />
    <path
      d="M272.6 269.19a27.25 27.25 0 00.81-6.29l9.55-5-2.64-9.69-10.78.5a27.27 27.27 0 00-3.87-5l3.19-10.31-8.7-5-7.28 7.94a28.8 28.8 0 00-6.27-.8l-5-9.55-9.68 2.63.51 10.79a27.24 27.24 0 00-5 3.87l-10.32-3.19-5 8.69 8 7.27a26 26 0 00-.79 6.27l-9.57 5 2.64 9.68 10.8-.51a25.39 25.39 0 003.85 5l-3.21 10.26 8.71 5 7.24-7.88a26.12 26.12 0 006.29.79l5 9.56 9.68-2.63-.43-9.22-.07-1.58a26.41 26.41 0 005.06-3.87l10.31 3.2 4.26-7.44.72-1.26zm-22.87 5.88a13 13 0 119.1-15.9 13 13 0 01-9.1 15.9z"
      style="transform-origin:246.36px 262.605px" id="prefix__elo9gaq5x5aqi" class="prefix__animable" fill="#263238" />
    <path
      d="M383.32 286.23l2.2-13.3-13.46-5.41a35.27 35.27 0 00-1.93-8.3l9.69-10.79-7.84-11-13.36 5.67a35.38 35.38 0 00-7.22-4.48l-.78-14.49-13.3-2.2-5.45 13.4a37.15 37.15 0 00-8.27 1.95l-10.82-9.69-10.95 7.84 5.68 13.35a36.24 36.24 0 00-4.05 6.29c-.15.31-.31.62-.45.93l-14.48.8-2.21 13.28 2.18.88 11.28 4.55a35.18 35.18 0 001.93 8.26L292 294.63l7.85 11 13.35-5.7a35.06 35.06 0 007.21 4.52l.75 14.42 13.29 2.2 5.44-13.3a35.13 35.13 0 008.28-1.94l10.8 9.69 11-7.85-5.68-13.36a34.78 34.78 0 004.55-7.25zm-37.3-.6a17.41 17.41 0 114-24.29 17.41 17.41 0 01-4.02 24.29z"
      style="transform-origin:335.92px 271.5px" id="prefix__ely8b73pyz12a" class="prefix__animable" fill="#263238" />
  </g>
  <g id="prefix__freepik--Graphics--inject-62" class="prefix__animable"
    style="transform-origin:236.115px 228.18px;animation:1.5s Infinite linear floating;animation-delay:0s">
    <rect x="85.39" y="187.77" width="130.8" height="171.01" rx="13.11" style="transform-origin:150.79px 273.275px"
      id="prefix__elm7ig0rwf9w" class="prefix__animable" fill="#92e3a9" stroke="#263238" stroke-miterlimit="10"
      stroke-width="1.103" />
    <rect x="85.39" y="187.77" width="130.8" height="171.01" rx="13.11" style="transform-origin:150.79px 273.275px"
      class="prefix__animable" opacity=".2" id="prefix__elrjhsfi2otul" />
    <path
      d="M228.36 213.8v144.79a13.11 13.11 0 01-13.11 13.12H110.67a13.11 13.11 0 01-13.1-13.12V213.8a13.11 13.11 0 0113.1-13.11h104.58a13.11 13.11 0 0113.11 13.11z"
      style="transform-origin:162.965px 286.2px" id="prefix__ela2fdsg8zye" class="prefix__animable" fill="#fff"
      stroke="#263238" stroke-linecap="round" stroke-linejoin="round" stroke-width="1.103" />
    <path d="M228.36 213.8v7.75H97.57v-7.75a13.11 13.11 0 0113.1-13.11h104.58a13.11 13.11 0 0113.11 13.11z"
      style="transform-origin:162.965px 211.12px" id="prefix__el092mke7t8kd5" class="prefix__animable" fill="#92e3a9"
      stroke="#263238" stroke-miterlimit="10" stroke-width="1.103" />
    <path style="transform-origin:125.96px 233.23px" id="prefix__elk0frua7cirg" class="prefix__animable" fill="#92e3a9"
      d="M109.87 230.53h32.18v5.4h-32.18z" />
    <path style="transform-origin:125.96px 281.62px" id="prefix__el6cgm9xlg3w" class="prefix__animable" fill="#92e3a9"
      d="M109.87 278.92h32.18v5.4h-32.18z" />
    <path style="transform-origin:125.96px 325.5px" id="prefix__elrgz1hhd17xl" class="prefix__animable" fill="#92e3a9"
      d="M109.87 322.8h32.18v5.4h-32.18z" />
    <path style="transform-origin:155.565px 245.88px" id="prefix__elm40k1qtjoil" class="prefix__animable" fill="#263238"
      d="M109.87 243.9h91.39v3.96h-91.39z" />
    <path style="transform-origin:147.325px 253.4px" id="prefix__el7gb5a1oxzbs" class="prefix__animable" fill="#263238"
      d="M109.87 251.47h74.91v3.86h-74.91z" />
    <path style="transform-origin:152.23px 260.85px" id="prefix__elagn4xdlru5u" class="prefix__animable" fill="#263238"
      d="M109.87 258.92h84.72v3.86h-84.72z" />
    <path style="transform-origin:152.23px 268.29px" id="prefix__el1tr2euzmsit" class="prefix__animable" fill="#263238"
      d="M109.87 266.36h84.72v3.86h-84.72z" />
    <path style="transform-origin:155.565px 289.76px" id="prefix__elkbizxud9ng" class="prefix__animable" fill="#263238"
      d="M109.87 287.78h91.39v3.96h-91.39z" />
    <path style="transform-origin:147.325px 297.28px" id="prefix__elg8274jbpvik" class="prefix__animable" fill="#263238"
      d="M109.87 295.35h74.91v3.86h-74.91z" />
    <path style="transform-origin:152.23px 304.73px" id="prefix__elsd3u7p4ttu" class="prefix__animable" fill="#263238"
      d="M109.87 302.8h84.72v3.86h-84.72z" />
    <path style="transform-origin:155.565px 337.94px" id="prefix__elrosb4np73tk" class="prefix__animable" fill="#263238"
      d="M109.87 335.96h91.39v3.96h-91.39z" />
    <path style="transform-origin:147.325px 345.47px" id="prefix__el410jzje34qd" class="prefix__animable" fill="#263238"
      d="M109.87 343.54h74.91v3.86h-74.91z" />
    <path style="transform-origin:152.23px 352.92px" id="prefix__elohonocmqhg" class="prefix__animable" fill="#263238"
      d="M109.87 350.99h84.72v3.86h-84.72z" />
    <path
      d="M375.77 100.29v58.52a15.63 15.63 0 01-15.64 15.63H225.35a15.63 15.63 0 01-15.64-15.63v-58.52a15.65 15.65 0 0115.64-15.64h134.78a15.64 15.64 0 0115.64 15.64z"
      style="transform-origin:292.74px 129.545px" id="prefix__eldk1equ4mxmg" class="prefix__animable" fill="#fff"
      stroke="#222221" stroke-miterlimit="10" stroke-width="1.103" />
    <path d="M375.77 100.29v1.34H209.71v-1.34a15.65 15.65 0 0115.64-15.64h134.78a15.64 15.64 0 0115.64 15.64z"
      style="transform-origin:292.74px 93.14px" id="prefix__elzpfnea87cd" class="prefix__animable" fill="#92e3a9"
      stroke="#263238" stroke-miterlimit="10" stroke-width="1.103" />
    <path d="M234.11 95.94a2.4 2.4 0 110-3.39 2.41 2.41 0 010 3.39z" style="transform-origin:232.409px 94.245px"
      id="prefix__elme3pwmgzjlr" class="prefix__animable" fill="#263238" />
    <path d="M245.23 95.94a2.4 2.4 0 110-3.39 2.41 2.41 0 010 3.39z" style="transform-origin:243.529px 94.245px"
      id="prefix__elnt8f7a2oq0f" class="prefix__animable" fill="#263238" />
    <path d="M256.35 95.94a2.4 2.4 0 110-3.39 2.41 2.41 0 010 3.39z" style="transform-origin:254.649px 94.245px"
      id="prefix__el1fshyacjfgy" class="prefix__animable" fill="#263238" />
    <path style="transform-origin:247.44px 135.85px" id="prefix__el15br53xupgb" class="prefix__animable" fill="none"
      stroke="#263238" stroke-linecap="round" stroke-linejoin="round" stroke-width="1.103" stroke-dasharray="4.412"
      d="M220.3 112.39h54.28v46.92H220.3z" />
    <path style="transform-origin:314.195px 114.04px" id="prefix__elxlxpl07rtwf" class="prefix__animable" fill="#263238"
      d="M282.96 112.39h62.47v3.3h-62.47z" />
    <path style="transform-origin:306.92px 120.865px" id="prefix__ell0dxblzlr4" class="prefix__animable" fill="#263238"
      d="M282.96 119.22h47.92v3.29h-47.92z" />
    <path style="transform-origin:318.635px 127.685px" id="prefix__el75r784ywdaq" class="prefix__animable"
      fill="#263238" d="M282.96 126.02h71.35v3.33h-71.35z" />
    <path style="transform-origin:313.34px 134.315px" id="prefix__el98z3p5xwdqd" class="prefix__animable" fill="#263238"
      d="M282.96 132.65h60.76v3.33h-60.76z" />
    <rect x="343.23" y="245.53" width="43.61" height="30.99" rx="6.53" style="transform-origin:365.035px 261.025px"
      id="prefix__eln2mjbfur1f" class="prefix__animable" fill="#fff" stroke="#263238" stroke-linecap="round"
      stroke-linejoin="round" stroke-width="1.103" />
    <path style="transform-origin:353.105px 260.93px" id="prefix__el3oankwnmmvp" class="prefix__animable" fill="none"
      stroke="#263238" stroke-linecap="round" stroke-linejoin="round" stroke-width="1.103"
      d="M357.3 254.85l-8.39 5.26 7.79 6.9" />
    <path style="transform-origin:375.77px 261.45px" id="prefix__el3q4ylnf9708" class="prefix__animable" fill="none"
      stroke="#263238" stroke-linecap="round" stroke-linejoin="round" stroke-width="1.103"
      d="M372.58 267.51l7.54-6.42-8.7-5.7" />
    <path style="transform-origin:364.475px 261.76px" id="prefix__el5bqfw5dsqsj" class="prefix__animable" fill="none"
      stroke="#263238" stroke-linecap="round" stroke-linejoin="round" stroke-width="1.103"
      d="M361.38 271.47l6.19-19.42" />
  </g>
  <g id="prefix__freepik--Character--inject-62" class="prefix__animable" style="transform-origin:309.678px 336.317px">
    <path
      d="M296.86 440.47s-29 8.31-33.05 9.75c-3.68 1.3-13.66 4.8-21.15 3.71a15.89 15.89 0 01-2.14-.46c-7.59-2.26-11-4.37-12-9.14s2.78-8.29 6.42-10.54 23.38-4.6 23.38-4.6l4.77 1.4z"
      style="transform-origin:262.608px 441.664px" id="prefix__elo1tz4mb0nvf" class="prefix__animable" fill="#92e3a9" />
    <path
      d="M242.66 453.93a15.89 15.89 0 01-2.14-.46c-7.59-2.26-11-4.37-12-9.14s2.78-8.29 6.42-10.54 23.38-4.6 23.38-4.6l4.77 1.4c-4.32 2-20.4 3.09-23.91 5.11s-5.2 5.82-3.13 11c1.11 2.7 4.07 5.35 6.61 7.23z"
      style="transform-origin:245.723px 441.56px" id="prefix__elw3nxjuiacs" class="prefix__animable" fill="#fff" />
    <path d="M292.5 441.65s-21.78 5.64-30.42 9.25-25.11 5.19-31-2.25-.68-13.86 5.19-15.29 17.74-3.68 24.22-2.77"
      style="transform-origin:260.496px 442.151px" id="prefix__ely29b06bvhx" class="prefix__animable" fill="none"
      stroke="#263238" stroke-linecap="round" stroke-linejoin="round" stroke-width="1.103" />
    <path d="M243.09 453.54s-11.08-6.08-7.4-14.6c2.72-6.28 17.5-4.92 24.82-8.35"
      style="transform-origin:247.726px 442.065px" id="prefix__el5aiqxhh4ovp" class="prefix__animable" fill="none"
      stroke="#263238" stroke-linecap="round" stroke-linejoin="round" stroke-width="1.103" />
    <path
      d="M385.19 455.28c-.3 3-1.35 5.81-4.35 7.58-2 1.18-4.84 1.88-8.91 1.84-10.17-.13-29.29-7.4-29.29-7.4l-17.9-9.9 9.31-14.73 2.55-4 6.58 1.48s5.45 3.09 10.93 5.55 18.79 3 23.48 6.77 8.11 7.87 7.6 12.81z"
      style="transform-origin:354.99px 446.686px" id="prefix__elmxwc4omg5l" class="prefix__animable" fill="#92e3a9" />
    <path
      d="M385.19 455.28c-.3 3-1.35 5.81-4.35 7.58a13.39 13.39 0 00-.5-8.94c-2-4.49-8.51-8.45-17.07-9.11s-15.11-4.66-18.54-6.45c-2.68-1.39-8.33-4.43-10.68-5.69l2.55-4 6.58 1.48s5.45 3.09 10.93 5.55 18.79 3 23.48 6.77 8.11 7.87 7.6 12.81z"
      style="transform-origin:359.645px 445.765px" id="prefix__elv8w1cpannv" class="prefix__animable" fill="#fff" />
    <path
      d="M328.71 450.18a112.86 112.86 0 0041.9 14.31c3.26.39 7.05.45 9.23-2a6.82 6.82 0 001.5-5.11c-.39-4.6-4.26-8.24-8.5-10.07s-8.91-2.25-13.42-3.26a53.38 53.38 0 01-12.9-4.72c-3.24-1.69-6.37-3.74-9.94-4.5s-7.82.16-9.73 3.28"
      style="transform-origin:354.118px 449.635px" id="prefix__elf9hp7yv7mm7" class="prefix__animable" fill="none"
      stroke="#263238" stroke-linecap="round" stroke-linejoin="round" stroke-width="1.103" />
    <path
      d="M378.64 463.74a11.92 11.92 0 006.55-8.46c.65-4.33-1.82-8.69-5.29-11.35s-7.82-3.92-12.11-4.81-8.68-1.49-12.79-3.12c-6.27-2.46-12.46-7.3-19-5.57"
      style="transform-origin:360.647px 446.902px" id="prefix__elejiz7z63tdk" class="prefix__animable" fill="none"
      stroke="#263238" stroke-linecap="round" stroke-linejoin="round" stroke-width="1.103" />
    <path
      d="M348.91 295.26l-30.29-11.52-.38-.15s.11-.8.2-2c.19-2.42.29-6.36-.85-7.69-1.69-2-6.47-.32-11.14-2.46s-13.3 1.69-13.3 1.69-6.24-1.15-9 3.35c-1.4 3.63-.92 9-.92 9l-.57.2c-3.61 1.35-23.25 8.74-27.4 11.71-4.59 3.25-9.67 36.62-11.3 46.42s-4.53 18.63-3.06 22 22.57 19.62 34.71 23.81 55.19 3 55.19 3 .7-.19 1.95-.59c7.28-2.34 33.11-12 46.82-34.68.02.04-13.26-43.49-30.66-62.09zm-81.84 56.13c-2.23 1.58-1 7.7-1 7.7l-3.79-3.34 9.52-23.41 4.06 18s-6.56-.52-8.79 1.05zm76.16 14.87c-1.05.54 3-10.71 1.08-13.26s-7.71-2.31-7.71-2.31l.49-3.07 3.43-17.6 1.14-1.35s11.78 20.19 13.89 27.31c0 .02-12.84 10.28-12.32 10.28z"
      style="transform-origin:310.033px 331.783px" id="prefix__elrq6h11ztar" class="prefix__animable" fill="#92e3a9" />
    <path
      d="M291.72 222.25l-15.64 16.6s-2.15 1.91-1.3 6.72 2.85 9 4.36 9.28a21.37 21.37 0 003.62.32s3.35 7.26 5.73 10.11c0 0 .82 11.21.38 14.32 0 0 5.62 4.91 10.91 5.53s13.46-7.48 13.46-7.48l2-9.92s4.8-7.28 5.12-9.22 2.52-1.44 3.6-2.4 3.57-5.23 4-9.27.44-8.68-4.25-7.32c-4.07-1.09-1.52-9.69-1.52-9.69l-7.15-6.3z"
      style="transform-origin:301.36px 253.707px" id="prefix__elimmg3kq5uiq" class="prefix__animable" fill="#fff" />
    <path
      d="M318.62 283.74a17.67 17.67 0 01-.81 1.81c-2.58 4.86-13.82 14.13-13.82 14.13l-3.4-10.45-1.86 10.45c-3.75-1.64-15.19-11.55-15.19-11.55s-.39-.93-.86-2.38l.57-.2s-.48-5.41.92-9c2.74-4.5 9-3.35 9-3.35s8.63-3.83 13.3-1.69 9.45.48 11.14 2.46.65 9.66.65 9.66z"
      style="transform-origin:300.65px 285.27px" class="prefix__animable" fill="#fff" opacity=".5"
      id="prefix__elvsovcrpt1ig" />
    <path
      d="M348.91 295.26l-30.29-11.52-.38-.15s.11-.8.2-2l-.63 3.93-4.48 6.08a124 124 0 0114 6.16 12.28 12.28 0 016.4 12.24l-5.58 47.75-2.29 27.11 6.91 7.17c7.28-2.34 33.11-12 46.82-34.68 0 .04-13.28-43.49-30.68-62.09zm-5.68 71c-1.05.54 3-10.71 1.08-13.26s-7.71-2.31-7.71-2.31l.49-3.07 3.43-17.6 1.14-1.35s11.78 20.19 13.89 27.31c0 .02-12.84 10.28-12.32 10.28z"
      style="transform-origin:346.46px 336.81px" class="prefix__animable" opacity=".2" id="prefix__el28i0jvmttx" />
    <path
      d="M277.87 353l-4.71-15.74s-8.45-28.81-14.24-35.91l1.52 20.26s-5 24.2-9.57 31.39-5.59 9 0 9 19.2 10.84 19.2 10.84l-1.05-9zM266 359.09l-3.79-3.34 9.52-23.41 4.06 18s-6.52-.49-8.75 1.08-1.04 7.67-1.04 7.67z"
      style="transform-origin:262.46px 337.095px" class="prefix__animable" opacity=".2" id="prefix__ellobjpl04s8r" />
    <path d="M288.49 265.28s.86 8.49 0 12.37" style="transform-origin:288.681px 271.465px" id="prefix__elpqb91m54b8j"
      class="prefix__animable" fill="none" stroke="#263238" stroke-linecap="round" stroke-linejoin="round"
      stroke-width="1.103" />
    <path d="M314.11 276.51a36.53 36.53 0 01.94-8.11" style="transform-origin:314.58px 272.455px"
      id="prefix__el0z0omd3sku2" class="prefix__animable" fill="none" stroke="#263238" stroke-linecap="round"
      stroke-linejoin="round" stroke-width="1.103" />
    <path
      d="M316.38 228.58s5.14 6.45 4.87 11.33-.65 10.66-.52 16.32-9.09 17.52-13.83 18.57-8.82 1.32-11.85-1.71-6.06-7.24-10-12.64-3-17.25-3-17.25"
      style="transform-origin:301.606px 252.052px" id="prefix__elmhlyv8mqi9q" class="prefix__animable" fill="none"
      stroke="#263238" stroke-linecap="round" stroke-linejoin="round" stroke-width="1.103" />
    <path
      d="M304 247.71a26.82 26.82 0 00-.4 5.37 6.05 6.05 0 001.32 4.2c.57.58 1.39 1.05 1.5 1.85a2 2 0 01-1.06 1.75 15.55 15.55 0 00-1.85 1.1"
      style="transform-origin:304.965px 254.845px" id="prefix__elyob3z40sybl" class="prefix__animable" fill="none"
      stroke="#263238" stroke-linecap="round" stroke-linejoin="round" stroke-width="1.103" />
    <path d="M295.87 262.6s.59 3.83 5.72 4.63" style="transform-origin:298.73px 264.915px" id="prefix__eltqhwpzl1cqi"
      class="prefix__animable" fill="none" stroke="#263238" stroke-linecap="round" stroke-linejoin="round"
      stroke-width="1.103" />
    <path d="M296.4 250.63c0 1.11-.48 2-1.07 2s-1.07-.89-1.07-2 .48-2 1.07-2 1.07.9 1.07 2z"
      style="transform-origin:295.33px 250.63px" id="prefix__el2rslpqkyknr" class="prefix__animable" fill="#263238" />
    <path d="M311.71 251.11c0 1.11-.48 2-1.07 2s-1.07-.9-1.07-2 .48-2 1.07-2 1.07.89 1.07 2z"
      style="transform-origin:310.64px 251.11px" id="prefix__elikinn917yc8" class="prefix__animable" fill="#263238" />
    <path d="M308.62 246.26s5-5 9.19.58" style="transform-origin:313.215px 245.52px" id="prefix__elc2fgyxe0vj"
      class="prefix__animable" fill="none" stroke="#263238" stroke-linecap="round" stroke-linejoin="round"
      stroke-width="2.206" />
    <path d="M298.09 246.36s-3.16-3.54-8.14 0" style="transform-origin:294.02px 245.573px" id="prefix__elhlz08as2ysb"
      class="prefix__animable" fill="none" stroke="#263238" stroke-linecap="round" stroke-linejoin="round"
      stroke-width="2.206" />
    <path d="M288.87 270s3.05 8.4 9.86 10.79 15.85-10 15.85-10l-.47-1.61s-5.93 7.7-12.52 6.39-13.1-10.25-13.1-10.25z"
      style="transform-origin:301.535px 273.208px" id="prefix__elzl284qi43n9" class="prefix__animable" fill="#263238" />
    <path d="M282.76 254.85s-4.06 1.43-5.14-1.73-4.78-11.49-1.54-14.27 5.84 3.67 5.84 3.67"
      style="transform-origin:278.769px 246.664px" id="prefix__ela2rat5v4kcu" class="prefix__animable" fill="none"
      stroke="#263238" stroke-linecap="round" stroke-linejoin="round" stroke-width="1.103" />
    <path d="M320.72 256.57s3.77.76 4.85-2.4 4.78-11.49 1.54-14.27-5.84 3.67-5.84 3.67"
      style="transform-origin:324.566px 247.927px" id="prefix__elvvrv03amiyf" class="prefix__animable" fill="none"
      stroke="#263238" stroke-linecap="round" stroke-linejoin="round" stroke-width="1.103" />
    <path
      d="M281.92 250.63a5.62 5.62 0 003.56-2.1 8.74 8.74 0 001-3.19 37.59 37.59 0 00.56-6.44 8.81 8.81 0 01.23-2.51 6.6 6.6 0 011.36-2.23c1.41-1.66 3.12-3.06 4.47-4.78a8 8 0 002-6 27.45 27.45 0 0022.47 5.81c7.15-1.4 14-7.67 13.17-15.55a6.37 6.37 0 00-5-5.48c-3.53-.88-6.7 1-9.9 2.21-5.83 2.2-11.54-1.58-17.43-2.21-5-.55-11.23.08-13.85 5.09 0 0-9 1.06-13 8.5s3.57 17.73 3.57 17.73 3-3.68 6.93 3.76z"
      style="transform-origin:300.601px 229.282px" id="prefix__elemjef0kw8of" class="prefix__animable" fill="#263238" />
    <path
      d="M317 226.68s-2.34 12.2 3.77 18.11c0 0 1.34-3.67 2.69-4.57a14.13 14.13 0 00-1.07-13.54c-4.52-7.1-5.39 0-5.39 0z"
      style="transform-origin:320.631px 234.157px" id="prefix__elpcaide0f6tm" class="prefix__animable" fill="#263238" />
    <path d="M328.14 212.8a11.49 11.49 0 01-7 7.27c-8.48 3.46-16.71-.37-25.21-1.12-6.93-.62-14.58 5.64-15.07 12.76"
      style="transform-origin:304.5px 222.255px" class="prefix__animable" fill="none" stroke="#fff"
      stroke-linecap="round" stroke-linejoin="round" stroke-width="1.103" opacity=".2" id="prefix__el5acctpeopbc" />
    <path d="M275.63 229.83a14.81 14.81 0 019-13.08" style="transform-origin:280.13px 223.29px" class="prefix__animable"
      fill="none" stroke="#fff" stroke-linecap="round" stroke-linejoin="round" stroke-width="1.103" opacity=".2"
      id="prefix__el02i6dike4xl4" />
    <path d="M286.53 276.51a38.71 38.71 0 0013.21 9s10.15-2.95 15.31-10" style="transform-origin:300.79px 280.51px"
      id="prefix__elsukqwc86qoq" class="prefix__animable" fill="none" stroke="#263238" stroke-linecap="round"
      stroke-linejoin="round" stroke-width="1.103" />
    <circle cx="293.15" cy="250.63" r="8.98" style="transform-origin:293.15px 250.63px" class="prefix__animable"
      fill="none" stroke="#263238" stroke-linecap="round" stroke-linejoin="round" stroke-width="1.103"
      transform="rotate(-24.64)" id="prefix__elfh52bdgyg8u" />
    <circle cx="313.22" cy="250.63" r="8.98" style="transform-origin:313.22px 250.63px" class="prefix__animable"
      fill="none" stroke="#263238" stroke-linecap="round" stroke-linejoin="round" stroke-width="1.103"
      transform="rotate(-7)" id="prefix__elleaisy9e8ci" />
    <path
      d="M288.49 273.16a7 7 0 00-4.33 3.35c-1.59 2.8-.63 11.61-.63 11.61s8.21 8.12 15.2 11.55l2.06-11.59 3.2 11.59s10.82-7.65 13.82-14.12c0 0 1-7.55 0-10a3.47 3.47 0 00-3.23-2.37"
      style="transform-origin:300.749px 286.415px" id="prefix__elc21tzq3nyei" class="prefix__animable" fill="none"
      stroke="#263238" stroke-linecap="round" stroke-linejoin="round" stroke-width="1.103" />
    <path d="M275.63 350.7s-3.21-21.5-7.48-30.27" style="transform-origin:271.89px 335.565px" id="prefix__el9mmuskr5r5n"
      class="prefix__animable" fill="none" stroke="#263238" stroke-linecap="round" stroke-linejoin="round"
      stroke-width="1.103" />
    <path d="M258.92 301.35a87 87 0 016.64 11.11" style="transform-origin:262.24px 306.905px" id="prefix__elx3nz35ri1vl"
      class="prefix__animable" fill="none" stroke="#263238" stroke-linecap="round" stroke-linejoin="round"
      stroke-width="1.103" />
    <path d="M343.23 317.4a62.1 62.1 0 013.53-10.49" style="transform-origin:344.995px 312.155px"
      id="prefix__el5zijj1dfzdl" class="prefix__animable" fill="none" stroke="#263238" stroke-linecap="round"
      stroke-linejoin="round" stroke-width="1.103" />
    <path d="M336.6 350.7s2.31-14.74 5.07-26.88" style="transform-origin:339.135px 337.26px" id="prefix__elwpsc1c1q2c"
      class="prefix__animable" fill="none" stroke="#263238" stroke-linecap="round" stroke-linejoin="round"
      stroke-width="1.103" />
    <path d="M340.52 330a17 17 0 018.94-6.12" style="transform-origin:344.99px 326.94px" id="prefix__elasf0ve52lo9"
      class="prefix__animable" fill="none" stroke="#263238" stroke-linecap="round" stroke-linejoin="round"
      stroke-width="1.103" />
    <path d="M318.25 283.59s18.63 7.45 30.66 11.68c0 0 14.8 13.91 30.67 62.12 0 0-14.54 24.46-42.2 32.3"
      style="transform-origin:348.915px 336.64px" id="prefix__elrig41o3m36" class="prefix__animable" fill="none"
      stroke="#263238" stroke-linecap="round" stroke-linejoin="round" stroke-width="1.103" />
    <path d="M342.18 367.13L355.55 356s7.07-5.37 14.42-1.7" style="transform-origin:356.075px 360.074px"
      id="prefix__elwljqw2uz5t" class="prefix__animable" fill="none" stroke="#263238" stroke-linecap="round"
      stroke-linejoin="round" stroke-width="1.103" />
    <path d="M341.67 328.67S352.72 345 355.55 356" style="transform-origin:348.61px 342.335px"
      id="prefix__elrw5nkxstqdf" class="prefix__animable" fill="none" stroke="#263238" stroke-linecap="round"
      stroke-linejoin="round" stroke-width="1.103" />
    <path d="M266.15 359.71l-3.91-3.71s-5.8-1-12.38 3.39" style="transform-origin:258.005px 357.806px"
      id="prefix__elf64vk5lwtu" class="prefix__animable" fill="none" stroke="#263238" stroke-linecap="round"
      stroke-linejoin="round" stroke-width="1.103" />
    <path d="M262.24 356s4.86-16 9.65-24.19" style="transform-origin:267.065px 343.905px" id="prefix__el44mosmmgj7c"
      class="prefix__animable" fill="none" stroke="#263238" stroke-linecap="round" stroke-linejoin="round"
      stroke-width="1.103" />
    <path d="M283.25 285.55s-26.81 10.06-29.44 13-12.62 59.19-12.89 65.63c-.23 5.76 20.65 18.69 31 24.14"
      style="transform-origin:262.084px 336.935px" id="prefix__el79un2tvlafj" class="prefix__animable" fill="none"
      stroke="#263238" stroke-linecap="round" stroke-linejoin="round" stroke-width="1.103" />
    <path d="M303.3 304.56a1.77 1.77 0 11-1.77-1.77 1.76 1.76 0 011.77 1.77z" style="transform-origin:301.53px 304.56px"
      id="prefix__elfc4f4tuubs" class="prefix__animable" fill="#263238" />
    <path
      d="M334.32 398.78h-61a1.43 1.43 0 01-1.43-1.43 1.43 1.43 0 011.43-1.43h61a1.43 1.43 0 011.43 1.43 1.43 1.43 0 01-1.43 1.43z"
      style="transform-origin:303.82px 397.35px" id="prefix__elb2pgm4igaz" class="prefix__animable" fill="#263238" />
    <path
      d="M336.46 394l8.17-38.4a4.08 4.08 0 00-4-4.93h-71.3a4.08 4.08 0 00-4 4.88l7.33 37.12a4.08 4.08 0 003.91 3.29l55.79 1.28a4.1 4.1 0 004.1-3.24z"
      style="transform-origin:304.985px 373.956px" id="prefix__el4f0pho9sbw6" class="prefix__animable" fill="#fff"
      stroke="#263238" stroke-linecap="round" stroke-linejoin="round" stroke-width="1.103" />
    <path d="M310.44 372.83a5.69 5.69 0 11-5.69-5.7 5.69 5.69 0 015.69 5.7z" style="transform-origin:304.75px 372.82px"
      id="prefix__el1ykcf3asoax" class="prefix__animable" fill="#263238" />
    <path style="transform-origin:325.865px 354.34px" id="prefix__elyv5a9guhftp" class="prefix__animable" fill="none"
      stroke="#263238" stroke-linecap="round" stroke-linejoin="round" stroke-width="1.103" d="M321.63 354.34h8.47" />
    <path style="transform-origin:297.255px 354.34px" id="prefix__elsejcwv8r3yl" class="prefix__animable" fill="none"
      stroke="#263238" stroke-linecap="round" stroke-linejoin="round" stroke-width="1.103" d="M281.18 354.34h32.15" />
    <path
      d="M336.6 434.77l-6.5 17.06s-16.58-4.18-37.81-8.53c-22.21-4.55-45.4-10.44-57.43-31.55-1.46-2.57-2.44-5.61-1.75-8.49 1.73-7.29 11.22-9.27 17.47-10a113.92 113.92 0 0111.83-.66c2 0 8.65-1.09 10.26.1a47.14 47.14 0 007.71 4.57c3.55 1.51 55.37-1.35 55.37-1.35a18.59 18.59 0 001.63-6.23c8.15-4.14 27-7.64 35-6.09 12.53 2.43 19.84 9.74 18.45 17.4s-29.07 28.2-54.23 33.77z"
      style="transform-origin:311.941px 417.528px" id="prefix__elkmr71hvuf2" class="prefix__animable" fill="#263238" />
    <path d="M336.6 434.77s-15.77-4.18-28.65-12.88-22.94-18.8-40.89-16.71" style="transform-origin:301.83px 419.836px"
      id="prefix__el50m4wk1s8wn" class="prefix__animable" fill="none" stroke="#fff" stroke-linecap="round"
      stroke-linejoin="round" stroke-width="1.103" />
    <path d="M305 419.84c8.14-2.34 14.11-7.61 20.64-12.66a139.62 139.62 0 0122.09-14.52"
      style="transform-origin:326.365px 406.25px" id="prefix__elaqorfi2vkjr" class="prefix__animable" fill="none"
      stroke="#fff" stroke-linecap="round" stroke-linejoin="round" stroke-width="1.103" />
    <path style="transform-origin:303.325px 252.05px" id="prefix__elb0vrrdy5v0v" class="prefix__animable" fill="none"
      stroke="#263238" stroke-linecap="round" stroke-linejoin="round" stroke-width="1.103" d="M302.13 252.05h2.39" />
  </g>
  <defs>
    <filter id="prefix__active" height="200%">
      <feMorphology in="SourceAlpha" result="DILATED" operator="dilate" radius="2" />
      <feFlood flood-color="#32DFEC" flood-opacity="1" result="PINK" />
      <feComposite in="PINK" in2="DILATED" operator="in" result="OUTLINE" />
      <feMerge>
        <feMergeNode in="OUTLINE" />
        <feMergeNode in="SourceGraphic" />
      </feMerge>
    </filter>
    <filter id="prefix__hover" height="200%">
      <feMorphology in="SourceAlpha" result="DILATED" operator="dilate" radius="2" />
      <feFlood flood-color="red" flood-opacity=".5" result="PINK" />
      <feComposite in="PINK" in2="DILATED" operator="in" result="OUTLINE" />
      <feMerge>
        <feMergeNode in="OUTLINE" />
        <feMergeNode in="SourceGraphic" />
      </feMerge>
      <feColorMatrix values="0 0 0 0 0 0 1 0 0 0 0 0 0 0 0 0 0 0 1 0" />
    </filter>
  </defs>
</svg>