<svg width="520" height="512" viewBox="0 0 520 512" fill="none" xmlns="http://www.w3.org/2000/svg">
<g filter="url(#filter0_d_308_2638)">
<g clip-path="url(#clip0_308_2638)">
<g clip-path="url(#clip1_308_2638)">
<g clip-path="url(#clip2_308_2638)">
<path fill-rule="evenodd" clip-rule="evenodd" d="M480.714 243.463C480.252 243.555 479.791 244.57 479.791 245.124C479.699 248.815 479.607 258.597 479.607 265.241C479.607 265.426 479.883 265.795 480.16 265.795C481.544 265.887 484.867 265.979 487.727 265.979C491.695 265.979 494.002 265.426 495.295 264.873C498.616 263.211 500.185 259.612 500.185 255.644C500.185 246.693 493.91 243.278 484.589 243.278C483.944 243.186 482.098 243.186 480.714 243.463ZM504.523 284.713C504.523 275.577 497.786 270.501 485.605 270.501C485.051 270.501 481.175 270.409 480.252 270.593C479.975 270.686 479.607 270.871 479.607 271.148C479.607 277.699 479.514 288.128 479.791 292.187C479.975 293.941 481.268 296.433 482.837 297.171C484.497 298.094 488.281 298.278 490.865 298.278C498.155 298.278 504.523 294.218 504.523 284.713ZM461.889 238.388C462.811 238.388 465.58 238.664 472.686 238.664C479.422 238.664 484.774 238.48 491.327 238.48C499.354 238.48 510.429 241.34 510.429 253.337C510.429 259.243 506.276 263.95 500.831 266.257C500.555 266.349 500.555 266.533 500.831 266.625C508.583 268.564 515.412 273.362 515.412 282.406C515.412 291.265 509.875 296.894 501.846 300.401C496.955 302.523 490.865 303.261 484.682 303.261C479.975 303.261 467.333 302.708 460.32 302.893C459.582 302.616 460.966 299.293 461.612 298.74C463.273 298.647 464.564 298.555 466.318 298.001C468.81 297.356 469.086 296.617 469.456 292.834C469.64 289.604 469.64 278.16 469.64 270.04C469.64 258.874 469.733 251.307 469.64 247.616C469.548 244.755 468.533 243.832 466.503 243.278C464.934 243.002 462.35 242.632 460.228 242.356C459.766 241.894 461.334 238.756 461.889 238.388ZM408.642 295.787C410.857 297.54 415.194 298.278 419.07 298.278C424.053 298.278 429.036 297.356 433.835 293.018C438.726 288.589 442.14 281.76 442.14 270.871C442.14 260.442 438.172 251.953 430.051 246.97C425.437 244.109 419.531 242.909 412.702 242.909C410.672 242.909 408.734 243.002 407.535 243.555C407.258 243.74 406.612 244.57 406.612 245.031C406.427 246.877 406.427 261.088 406.427 269.394C406.427 277.976 406.427 289.973 406.612 291.357C406.612 292.742 407.258 294.864 408.642 295.787ZM387.694 238.388C389.447 238.388 396.183 238.664 399.413 238.664C405.228 238.664 409.38 238.388 420.361 238.388C429.59 238.388 437.341 240.879 442.878 245.585C449.615 251.399 453.122 259.428 453.122 269.209C453.122 283.144 446.754 291.173 440.386 295.787C434.02 300.493 425.714 303.261 413.902 303.261C407.627 303.261 396.83 303.077 387.878 302.984H387.786C387.325 302.154 388.524 298.924 389.262 298.832C391.662 298.555 392.308 298.463 393.508 298.001C395.445 297.263 395.815 296.248 396.092 292.834C396.368 286.466 396.276 278.807 396.276 270.132C396.276 263.95 396.368 251.86 396.183 247.984C395.907 244.755 394.523 243.925 391.754 243.37C390.37 243.094 388.524 242.724 385.941 242.448C385.571 241.801 387.233 238.941 387.694 238.388Z" fill="#8E714E"/>
<path fill-rule="evenodd" clip-rule="evenodd" d="M276.033 299.385C273.726 299.108 272.065 298.74 270.035 297.817C269.758 297.632 269.296 296.71 269.296 296.34C269.112 293.11 269.112 283.882 269.112 277.699C269.112 272.716 268.282 268.379 266.159 265.334C263.667 261.826 260.068 259.797 255.454 259.797C251.394 259.797 245.949 262.565 241.427 266.441C241.335 266.533 240.597 267.179 240.689 266.164C240.689 265.149 240.874 263.119 240.966 261.735C241.059 260.442 240.32 259.797 240.32 259.797C237.367 261.273 229.062 263.211 226.016 263.488C223.802 263.949 223.248 266.072 225.555 266.81H225.648C228.139 267.548 229.8 268.379 231.091 269.209C232.014 269.948 231.922 270.963 231.922 271.794C232.014 278.715 232.014 289.327 231.738 295.141C231.646 297.448 231 298.278 229.339 298.647L229.523 298.555C228.231 298.832 227.216 299.108 225.647 299.293C225.093 299.846 225.093 302.8 225.647 303.446C226.662 303.446 232.014 303.169 236.445 303.169C242.535 303.169 245.673 303.446 247.241 303.446C247.887 302.708 248.072 299.939 247.703 299.293C245.949 299.201 244.657 299.017 243.458 298.647C241.797 298.278 241.335 297.448 241.243 295.51C241.059 290.618 241.059 280.283 241.059 273.27C241.059 271.332 241.612 270.409 242.165 269.855C244.288 268.01 247.703 266.718 250.748 266.718C253.701 266.718 255.639 267.641 257.115 268.841C259.145 270.501 259.791 272.9 260.068 274.654C260.529 278.622 260.345 286.466 260.345 293.295C260.345 296.986 260.068 297.909 258.684 298.37C258.038 298.647 256.377 299.017 254.439 299.201C253.793 299.846 253.978 302.708 254.439 303.354C257.115 303.354 260.253 303.076 264.867 303.076C270.588 303.076 274.28 303.354 275.756 303.354C276.217 302.8 276.402 300.124 276.033 299.385H276.033ZM301.595 264.134C296.704 264.134 293.659 267.918 293.659 273.823C293.659 279.821 296.335 286.743 303.903 286.743C305.194 286.743 307.594 286.189 308.7 284.897C310.454 283.236 311.654 279.914 311.654 276.408C311.654 268.748 307.87 264.134 301.595 264.134ZM300.949 304.922C299.104 304.922 297.811 305.476 296.981 305.938C293.105 308.429 291.352 310.828 291.352 313.689C291.352 316.365 292.367 318.487 294.582 320.333C297.258 322.64 300.949 323.748 305.655 323.748C315.068 323.748 319.221 318.672 319.221 313.689C319.221 310.182 317.467 307.875 313.869 306.584C311.285 305.476 306.578 304.922 300.949 304.922ZM301.595 328.916C295.966 328.916 291.905 327.716 288.399 325.04C284.984 322.456 283.508 318.58 283.508 315.904C283.508 315.166 283.693 313.135 285.354 311.29C286.368 310.182 288.583 308.06 293.844 304.461C294.028 304.369 294.12 304.277 294.12 304.092C294.12 303.907 293.935 303.722 293.751 303.631C289.414 301.97 288.122 299.293 287.752 297.817V297.632C287.661 297.078 287.476 296.525 288.307 295.971C288.953 295.51 289.876 294.956 290.89 294.31C292.459 293.387 294.12 292.372 295.135 291.541C295.32 291.357 295.32 291.173 295.32 290.988C295.32 290.803 295.135 290.618 294.951 290.527C288.492 288.404 285.262 283.605 285.262 276.408C285.262 271.701 287.384 267.456 291.167 264.78C293.751 262.749 300.211 260.258 304.456 260.258H304.733C309.07 260.35 311.469 261.273 314.883 262.473C316.729 263.119 318.483 263.395 320.882 263.395C324.481 263.395 326.05 262.288 327.341 260.997C327.434 261.181 327.619 261.642 327.711 262.842C327.803 264.042 327.434 265.795 326.511 267.087C325.773 268.102 324.112 268.841 322.451 268.841H321.989C320.328 268.656 319.59 268.471 319.59 268.471L319.221 268.656C319.129 268.841 319.221 269.025 319.313 269.302L319.406 269.487C319.59 270.317 319.959 272.808 319.959 273.455C319.959 281.022 316.914 284.343 313.684 286.835C310.546 289.142 306.948 290.618 302.887 290.988C302.795 290.988 302.426 290.988 301.595 291.08C301.134 291.08 300.488 291.173 300.395 291.173H300.303C299.565 291.357 297.72 292.28 297.72 293.848C297.72 295.232 298.55 296.894 302.518 297.171C303.348 297.263 304.179 297.263 305.102 297.356C310.362 297.724 316.914 298.186 319.959 299.201C324.204 300.769 326.88 304.553 326.88 309.075C326.88 315.904 321.989 322.272 313.869 326.239C309.901 327.993 305.932 328.916 301.595 328.916ZM354.196 264.595C352.258 264.595 350.504 265.056 349.212 265.979C345.614 268.194 343.768 272.624 343.768 279.083C343.768 291.173 349.858 299.663 358.533 299.663C361.117 299.663 363.147 298.924 364.9 297.448C367.576 295.232 368.961 290.803 368.961 284.62C368.961 272.624 362.962 264.595 354.196 264.595ZM355.857 304.092C340.169 304.092 334.54 292.557 334.54 281.76C334.54 274.193 337.585 268.379 343.675 264.226C348.013 261.55 353.181 260.074 357.795 260.074C369.791 260.074 378.189 268.656 378.189 281.022C378.189 289.419 374.867 296.063 368.499 300.124C365.454 302.153 360.194 304.092 355.856 304.092H355.857ZM191.411 264.595C189.473 264.595 187.72 265.056 186.427 265.979C182.829 268.194 180.983 272.624 180.983 279.083C180.983 291.173 187.073 299.663 195.748 299.663C198.332 299.663 200.362 298.924 202.116 297.448C204.791 295.232 206.176 290.803 206.176 284.62C206.176 272.624 200.27 264.595 191.411 264.595ZM193.072 304.092C177.384 304.092 171.755 292.557 171.755 281.76C171.755 274.193 174.8 268.379 180.89 264.226C185.228 261.55 190.396 260.074 195.01 260.074C207.007 260.074 215.404 268.656 215.404 281.022C215.404 289.419 212.082 296.063 205.714 300.124C202.761 302.153 197.501 304.092 193.072 304.092ZM87.5942 303.169C87.4094 302.893 87.2246 302.062 87.317 301.047C87.317 300.308 87.5018 299.846 87.5942 299.663C89.5316 299.385 90.547 299.108 91.6539 298.832C93.4999 298.37 94.2381 297.356 94.3305 295.049C94.6076 289.512 94.6076 278.991 94.5152 271.701V271.516C94.5152 270.686 94.5152 269.67 93.4999 268.932C92.0234 268.01 90.2699 267.179 87.9628 266.533C87.1322 266.257 86.5788 265.795 86.6712 265.241C86.6712 264.688 87.2246 264.042 88.4248 263.857C91.47 263.58 99.4056 261.642 102.543 260.258C102.728 260.442 103.005 260.997 103.005 261.735L102.913 262.749C102.82 263.765 102.728 264.965 102.728 266.164C102.728 266.533 103.097 266.81 103.466 266.81C103.651 266.81 103.836 266.718 104.02 266.625C109.926 262.011 115.278 260.35 118.047 260.35C122.569 260.35 126.075 262.473 128.752 266.902C128.936 267.179 129.121 267.271 129.398 267.271C129.582 267.271 129.859 267.179 129.951 266.995C135.396 262.842 140.84 260.35 144.439 260.35C153.021 260.35 158.097 266.718 158.097 277.514C158.097 280.56 158.097 284.528 158.005 288.127C158.005 291.357 157.913 294.31 157.913 296.433C157.913 296.894 158.558 298.37 159.574 298.647C160.865 299.293 162.619 299.57 164.926 299.939H165.018C165.203 300.585 164.834 302.984 164.465 303.446C163.911 303.446 163.08 303.446 162.158 303.354C160.404 303.261 157.913 303.169 155.144 303.169C149.423 303.169 146.47 303.261 143.609 303.446C143.425 302.708 143.332 300.493 143.609 299.939C145.27 299.663 146.1 299.385 147.116 299.108C148.962 298.555 149.423 297.724 149.515 295.325C149.515 293.572 149.884 278.622 149.33 275.023C148.777 271.332 146.008 266.995 139.917 266.995C137.61 266.995 134.012 267.918 130.505 270.593C130.321 270.778 130.136 271.239 130.136 271.516V271.609C130.505 273.546 130.505 275.762 130.505 279.176V285.174C130.505 289.327 130.412 293.203 130.505 296.155C130.505 298.186 131.705 298.647 132.72 299.017C133.274 299.108 133.642 299.201 134.104 299.293C134.935 299.478 135.765 299.663 137.057 299.939C137.242 300.308 137.242 301.508 136.965 302.523C136.872 303.076 136.687 303.354 136.596 303.446C133.458 303.354 130.228 303.261 125.522 303.261C124.138 303.261 121.738 303.354 119.708 303.354C118.047 303.354 116.478 303.446 115.556 303.446C115.463 303.261 115.278 302.615 115.278 301.6C115.278 300.769 115.463 300.124 115.648 299.939C116.109 299.846 116.478 299.755 116.94 299.755C118.047 299.57 118.969 299.385 119.892 299.201C121.461 298.74 122.015 297.909 122.107 295.879C122.384 291.265 122.661 278.069 122.015 274.746C120.908 269.394 117.863 266.718 112.971 266.718C110.111 266.718 106.511 268.102 103.559 270.317C103.097 270.686 102.728 271.609 102.728 272.439V277.884C102.728 284.528 102.728 292.834 102.82 296.433C102.913 297.539 103.281 298.832 105.405 299.293C105.866 299.385 106.604 299.57 107.527 299.663L109.188 299.939C109.373 300.493 109.28 302.708 108.911 303.446C107.988 303.446 106.881 303.354 105.588 303.354C103.651 303.261 101.159 303.169 98.3911 303.169C95.1611 303.169 92.854 303.261 91.0081 303.354C89.7164 303.169 88.7011 303.169 87.5942 303.169Z" fill="#442D22"/>
<g clip-path="url(#clip3_308_2638)">
<path fill-rule="evenodd" clip-rule="evenodd" d="M39.0536 325.317L35.2702 324.025C35.2702 324.025 35.7321 304.738 28.811 303.354C24.197 298.001 29.5493 76.3409 46.1595 302.615C46.1595 302.615 40.4385 305.476 39.4232 310.367C38.3154 315.166 39.0536 325.317 39.0536 325.317Z" fill="white"/>
<path fill-rule="evenodd" clip-rule="evenodd" d="M39.0536 325.317L35.2702 324.025C35.2702 324.025 35.7321 304.738 28.811 303.354C24.197 298.001 29.5493 76.3409 46.1595 302.615C46.1595 302.615 40.4385 305.476 39.4232 310.367C38.3154 315.166 39.0536 325.317 39.0536 325.317Z" fill="#A6A385"/>
<path fill-rule="evenodd" clip-rule="evenodd" d="M41.0842 306.676C41.0842 306.676 74.2131 284.897 66.4614 239.587C58.9869 206.643 41.3605 195.846 39.423 191.693C37.3008 188.74 35.27 183.572 35.27 183.572L36.6549 275.207C36.6549 275.3 33.7936 303.261 41.0842 306.676Z" fill="white"/>
<path fill-rule="evenodd" clip-rule="evenodd" d="M41.0842 306.676C41.0842 306.676 74.2131 284.897 66.4614 239.587C58.9869 206.643 41.3605 195.846 39.423 191.693C37.3008 188.74 35.27 183.572 35.27 183.572L36.6549 275.207C36.6549 275.3 33.7936 303.261 41.0842 306.676Z" fill="#499D4A"/>
<path fill-rule="evenodd" clip-rule="evenodd" d="M33.3326 307.875C33.3326 307.875 2.23357 286.65 4.07953 249.277C5.83225 211.903 27.7956 193.539 32.0401 190.216C34.809 187.263 34.9014 186.156 35.0862 183.203C37.0237 187.356 36.655 245.309 36.9313 252.137C37.7619 278.437 35.4549 302.893 33.3326 307.875Z" fill="white"/>
<path fill-rule="evenodd" clip-rule="evenodd" d="M33.3326 307.875C33.3326 307.875 2.23357 286.65 4.07953 249.277C5.83225 211.903 27.7956 193.539 32.0401 190.216C34.809 187.263 34.9014 186.156 35.0862 183.203C37.0237 187.356 36.655 245.309 36.9313 252.137C37.7619 278.437 35.4549 302.893 33.3326 307.875Z" fill="#58AA50"/>
</g>
</g>
</g>
</g>
</g>
<defs>
<filter id="filter0_d_308_2638" x="0" y="0" width="520" height="520" filterUnits="userSpaceOnUse" color-interpolation-filters="sRGB">
<feFlood flood-opacity="0" result="BackgroundImageFix"/>
<feColorMatrix in="SourceAlpha" type="matrix" values="0 0 0 0 0 0 0 0 0 0 0 0 0 0 0 0 0 0 127 0" result="hardAlpha"/>
<feOffset dy="4"/>
<feGaussianBlur stdDeviation="2"/>
<feComposite in2="hardAlpha" operator="out"/>
<feColorMatrix type="matrix" values="0 0 0 0 0 0 0 0 0 0 0 0 0 0 0 0 0 0 0.25 0"/>
<feBlend mode="normal" in2="BackgroundImageFix" result="effect1_dropShadow_308_2638"/>
<feBlend mode="normal" in="SourceGraphic" in2="effect1_dropShadow_308_2638" result="shape"/>
</filter>
<clipPath id="clip0_308_2638">
<rect width="512" height="146" fill="white" transform="translate(4 183)"/>
</clipPath>
<clipPath id="clip1_308_2638">
<rect width="512" height="146" fill="white" transform="translate(4 183)"/>
</clipPath>
<clipPath id="clip2_308_2638">
<rect width="512" height="146" fill="white" transform="translate(4 183)"/>
</clipPath>
<clipPath id="clip3_308_2638">
<rect width="64" height="143" fill="white" transform="translate(4 183)"/>
</clipPath>
</defs>
</svg>
